<svg width="108" height="20" viewBox="0 0 108 20" fill="none" xmlns="http://www.w3.org/2000/svg">
<path fill-rule="evenodd" clip-rule="evenodd" d="M1.49797 1.65034C2.47941 0.597411 3.88277 0 5.56017 0H14.4388C16.1204 0 17.5243 0.597189 18.5052 1.65054C19.482 2.69965 20 4.15844 20 5.81724V14.1827C20 15.8416 19.482 17.3003 18.5051 18.3495C17.524 19.4028 16.1199 20 14.4378 20H5.56017C3.87849 20 2.47485 19.4028 1.49427 18.3494C0.517663 17.3003 0 15.8415 0 14.1827V5.81724C0 4.15786 0.520358 2.69917 1.49797 1.65034ZM13.3181 6.93794C13.5819 6.59075 13.5143 6.09548 13.1672 5.83172C12.8199 5.56795 12.3246 5.63558 12.0608 5.98276L6.68188 13.0629C6.41813 13.4101 6.48575 13.9054 6.83293 14.1692C7.18012 14.4329 7.67539 14.3653 7.93916 14.0181L13.3181 6.93794Z" fill="#CEF739"/>
<path d="M27.1389 14V5.01538H32.7266V6.44308H28.6528V8.84308H32.4066V10.2708H28.6774V14H27.1389ZM34.648 14L37.1341 9.39692L34.7956 5.01538H36.5187L37.651 7.26769C37.7331 7.43179 37.8069 7.59179 37.8726 7.74769C37.9382 7.89538 37.9874 8.01026 38.0203 8.09231C38.0449 8.01026 38.09 7.89538 38.1556 7.74769C38.2213 7.59179 38.2951 7.43179 38.3772 7.26769L39.5218 5.01538H41.1956L38.8572 9.36L41.3433 14H39.6203L38.3526 11.5138C38.2705 11.3497 38.1926 11.1897 38.1187 11.0338C38.0531 10.8779 38.0038 10.7549 37.971 10.6646C37.9382 10.7549 37.889 10.8779 37.8233 11.0338C37.7577 11.1897 37.6838 11.3497 37.6018 11.5138L36.3218 14H34.648ZM43.1908 15.6985V14.3077H49.0985V15.6985H43.1908ZM54.343 14.1231C53.7686 14.1231 53.264 14.0164 52.8291 13.8031C52.4024 13.5815 52.0701 13.2738 51.8322 12.88C51.6024 12.4779 51.4876 12.0062 51.4876 11.4646V7.55077C51.4876 7.00103 51.6024 6.52923 51.8322 6.13538C52.0701 5.74154 52.4024 5.43795 52.8291 5.22461C53.264 5.00308 53.7686 4.89231 54.343 4.89231C54.9255 4.89231 55.426 5.00308 55.8445 5.22461C56.2712 5.43795 56.6035 5.74154 56.8414 6.13538C57.0794 6.52923 57.1983 7.00103 57.1983 7.55077H55.6476C55.6476 7.1241 55.5327 6.8 55.303 6.57846C55.0814 6.35692 54.7614 6.24615 54.343 6.24615C53.9245 6.24615 53.6004 6.35692 53.3706 6.57846C53.1409 6.8 53.026 7.12 53.026 7.53846V11.4646C53.026 11.8831 53.1409 12.2072 53.3706 12.4369C53.6004 12.6585 53.9245 12.7692 54.343 12.7692C54.7614 12.7692 55.0814 12.6585 55.303 12.4369C55.5327 12.2072 55.6476 11.8831 55.6476 11.4646H57.1983C57.1983 11.9979 57.0794 12.4656 56.8414 12.8677C56.6035 13.2697 56.2712 13.5815 55.8445 13.8031C55.426 14.0164 54.9255 14.1231 54.343 14.1231ZM59.6981 14V5.01538H61.2366V8.62154H63.6489V5.01538H65.1874V14H63.6489V10.0492H61.2366V14H59.6981ZM67.9826 14V5.01538H73.3733V6.35692H69.4964V8.69538H72.9426V10.0246H69.4964V12.6585H73.3733V14H67.9826ZM78.7901 14.1231C78.2157 14.1231 77.7111 14.0164 77.2762 13.8031C76.8496 13.5815 76.5172 13.2738 76.2793 12.88C76.0496 12.4779 75.9347 12.0062 75.9347 11.4646V7.55077C75.9347 7.00103 76.0496 6.52923 76.2793 6.13538C76.5172 5.74154 76.8496 5.43795 77.2762 5.22461C77.7111 5.00308 78.2157 4.89231 78.7901 4.89231C79.3726 4.89231 79.8731 5.00308 80.2916 5.22461C80.7183 5.43795 81.0506 5.74154 81.2885 6.13538C81.5265 6.52923 81.6455 7.00103 81.6455 7.55077H80.0947C80.0947 7.1241 79.9798 6.8 79.7501 6.57846C79.5285 6.35692 79.2085 6.24615 78.7901 6.24615C78.3716 6.24615 78.0475 6.35692 77.8178 6.57846C77.588 6.8 77.4731 7.12 77.4731 7.53846V11.4646C77.4731 11.8831 77.588 12.2072 77.8178 12.4369C78.0475 12.6585 78.3716 12.7692 78.7901 12.7692C79.2085 12.7692 79.5285 12.6585 79.7501 12.4369C79.9798 12.2072 80.0947 11.8831 80.0947 11.4646H81.6455C81.6455 11.9979 81.5265 12.4656 81.2885 12.8677C81.0506 13.2697 80.7183 13.5815 80.2916 13.8031C79.8731 14.0164 79.3726 14.1231 78.7901 14.1231ZM84.133 14V5.01538H85.6714V8.64615H86.7422L88.4283 5.01538H90.1022L88.096 9.32308L90.2006 14H88.4899L86.7176 10.0492H85.6714V14H84.133ZM92.4297 14V5.01538H97.8204V6.35692H93.9435V8.69538H97.3897V10.0246H93.9435V12.6585H97.8204V14H92.4297ZM100.431 14V5.01538H103.274C103.873 5.01538 104.39 5.12615 104.825 5.34769C105.268 5.56923 105.613 5.88102 105.859 6.28308C106.105 6.67692 106.228 7.14461 106.228 7.68615C106.228 8.27692 106.076 8.79795 105.773 9.24923C105.477 9.70051 105.075 10.0205 104.566 10.2092L106.351 14H104.628L103.065 10.4308H101.969V14H100.431ZM101.969 9.07692H103.274C103.709 9.07692 104.049 8.95795 104.296 8.72C104.542 8.48205 104.665 8.15385 104.665 7.73538C104.665 7.30872 104.542 6.97641 104.296 6.73846C104.049 6.49231 103.709 6.36923 103.274 6.36923H101.969V9.07692Z" fill="#0A0A0A"/>
</svg>
